HIERARCHY
ROOT Hips
{
	OFFSET 0.00000 0.00000 0.00000
	CHANNELS 6 Xposition Yposition Zposition Zrotation Yrotation Xrotation 
	JOINT LHipJoint
	{
		OFFSET 0 0 0
		CHANNELS 3 Zrotation Yrotation Xrotation
		JOINT LeftHip
		{
			OFFSET 1.62964 -1.40469 0.78906
			CHANNELS 3 Zrotation Yrotation Xrotation
			JOINT LeftKnee
			{
				OFFSET 2.29640 -6.30932 0.00000
				CHANNELS 3 Zrotation Yrotation Xrotation
				JOINT LeftAnkle
				{
					OFFSET 2.29451 -6.30412 0.00000
					CHANNELS 3 Zrotation Yrotation Xrotation
					JOINT LeftToe
					{
						OFFSET 0.03611 -0.09921 1.56387
						CHANNELS 3 Zrotation Yrotation Xrotation
						End Site
						{
							OFFSET 0.00000 -0.00000 0.80291
						}
					}
				}
			}
		}
	}
	JOINT RHipJoint
	{
		OFFSET 0 0 0
		CHANNELS 3 Zrotation Yrotation Xrotation
		JOINT RightHip
		{
			OFFSET -1.73712 -1.40469 0.78906
			CHANNELS 3 Zrotation Yrotation Xrotation
			JOINT RightKnee
			{
				OFFSET -2.28137 -6.26801 0.00000
				CHANNELS 3 Zrotation Yrotation Xrotation
				JOINT RightAnkle
				{
					OFFSET -2.28681 -6.28298 0.00000
					CHANNELS 3 Zrotation Yrotation Xrotation
					JOINT RightToe
					{
						OFFSET -0.15927 -0.43759 1.61103
						CHANNELS 3 Zrotation Yrotation Xrotation
						End Site
						{
							OFFSET -0.00000 -0.00000 0.84630
						}
					}
				}
			}
		}
	}
	JOINT lowerback
	{
		OFFSET 0 0 0
		CHANNELS 3 Zrotation Yrotation Xrotation
		JOINT Chest
		{
			OFFSET -0.04227 2.04338 -0.00225
			CHANNELS 3 Zrotation Yrotation Xrotation
			JOINT Chest2
			{
				OFFSET -0.02148 2.04482 -0.04273
				CHANNELS 3 Zrotation Yrotation Xrotation
				JOINT lowerneck
				{
					OFFSET 0 0 0
					CHANNELS 3 Zrotation Yrotation Xrotation
					JOINT Neck
					{
						OFFSET 0.09180 1.44629 0.19359
						CHANNELS 3 Zrotation Yrotation Xrotation
						JOINT Head
						{
							OFFSET 0.00887 1.40645 0.14750
							CHANNELS 3 Zrotation Yrotation Xrotation
							End Site
							{
								OFFSET -0.00669 1.50671 0.03707
							}
						}
					}
				}
				JOINT LeftCollar
				{
					OFFSET 0 0 0
					CHANNELS 3 Zrotation Yrotation Xrotation
					JOINT LeftShoulder
					{
						OFFSET 2.17674 1.86763 -0.06520
CHANNELS 3 Zrotation Xrotation Yrotation
						JOINT LeftElbow
						{
OFFSET 0 -4.657760 0.000000
CHANNELS 3 Zrotation Xrotation Yrotation
							JOINT LeftWrist
							{
OFFSET 0 -3.555390 0.000000
CHANNELS 3 Zrotation Xrotation Yrotation
								JOINT lhand
								{
									OFFSET 0 0 0
CHANNELS 3 Zrotation Xrotation Yrotation
									JOINT LFingers
									{
OFFSET 0 -0.707260 0.000000
CHANNELS 3 Zrotation Xrotation Yrotation
										End Site
										{
OFFSET 0 -0.570220 0.000000
										}
									}
								}
								JOINT LThumb
								{
OFFSET 0 0.000000 0.000000
CHANNELS 3 Zrotation Xrotation Yrotation
									End Site
									{
OFFSET 0 -0.578920 0.578920
									}
								}
							}
						}
					}
				}
				JOINT RightCollar
				{
					OFFSET 0 0 0
					CHANNELS 3 Zrotation Yrotation Xrotation
					JOINT RightShoulder
					{
						OFFSET -2.80694 1.55459 -0.32496
CHANNELS 3 Zrotation Xrotation Yrotation
						JOINT RightElbow
						{
OFFSET 0 -4.719250 -0.000000
CHANNELS 3 Zrotation Xrotation Yrotation
							JOINT RightWrist
							{
OFFSET 0 -3.569900 0.000000
CHANNELS 3 Zrotation Xrotation Yrotation
								JOINT rhand
								{
									OFFSET 0 0 0
CHANNELS 3 Zrotation Xrotation Yrotation
									JOINT RFingers
									{
OFFSET 0 -0.507760 0.000000
CHANNELS 3 Zrotation Xrotation Yrotation
										End Site
										{
OFFSET 0 -0.409370 0.000000
										}
									}
								}
								JOINT RThumb
								{
OFFSET 0 0.000000 0.000000
CHANNELS 3 Zrotation Xrotation Yrotation
									End Site
									{
OFFSET 0 -0.415620 0.415620
									}
								}
							}
						}
					}
				}
			}
		}
	}
}
MOTION
Frames: 11
Frame Time: 0.008333333333333333
9.611717 20.979123 17.672697 6.281998 37.600648 27.612232 0.000000 0.000000 0.000000 -11.104521 -21.985931 -46.279592 3.789637 11.874255 35.289622 0.573203 13.773112 15.513327 4.979621 -13.359975 -40.732822 0.000000 0.000000 0.000000 9.329989 23.297127 -29.444442 -1.186718 -6.913279 19.458620 0.010838 -8.382462 5.656139 -3.767518 11.841880 -35.178283 -5.027790 -2.301001 -25.603779 0.435939 -1.532926 -5.190528 2.888718 -0.779839 8.593477 -4.743951 -0.023423 1.152979 6.947405 -0.416153 8.904789 3.124488 -0.144530 2.706090 0.000000 0.000000 0.000000 23.226303 -9.326470 -60.009899 38.885197 -47.395304 17.614278 33.828013 -15.299789 20.489769 0.000000 0.000000 0.000000 -7.125000 0.000000 0.000000 3.338574 5.794800 2.989662 0.000000 0.000000 0.000000 -7.016190 20.974461 34.321009 -34.784003 -44.656777 -14.661454 -18.138052 7.952774 42.521321 0.000000 0.000000 0.000000 7.125000 0.000000 0.000000 30.435140 71.930949 -20.030674
9.608596 20.924589 17.700310 6.223048 39.411727 27.516061 0.000000 0.000000 0.000000 -11.071581 -21.804017 -46.171275 3.928600 12.063034 35.957703 0.599723 14.250807 15.931021 4.856391 -13.219475 -40.196879 0.000000 0.000000 0.000000 9.524189 23.368012 -29.217121 -1.192949 -6.930691 19.510197 0.014104 -8.094958 5.370777 -3.910318 12.039182 -35.872003 -5.136465 -2.386192 -25.541784 0.477175 -1.614928 -5.207010 2.971735 -0.817149 8.554540 -4.754717 -0.015084 1.119872 6.937694 -0.399985 8.893734 3.123574 -0.135547 2.707396 0.000000 0.000000 0.000000 24.134871 -9.127028 -59.257027 38.802265 -47.343970 17.553262 33.885177 -15.094014 20.400665 0.000000 0.000000 0.000000 -7.125000 0.000000 0.000000 3.388804 5.883180 3.028852 0.000000 0.000000 0.000000 -7.264473 20.946947 34.360109 -34.522154 -44.467372 -14.477753 -17.759136 7.815874 42.582428 0.000000 0.000000 0.000000 7.125000 0.000000 0.000000 30.995908 71.848319 -20.366504
9.604612 20.868312 17.727918 6.138767 41.222448 27.399249 0.000000 0.000000 0.000000 -10.984527 -21.636454 -46.072638 4.076175 12.261047 36.661913 0.634179 14.628288 16.377878 4.745710 -13.091520 -39.711977 0.000000 0.000000 0.000000 9.746232 23.448610 -29.013453 -1.204264 -6.962332 19.603965 0.020586 -7.802498 5.014176 -4.017036 12.183041 -36.382608 -5.240845 -2.483920 -25.454226 0.525598 -1.716850 -5.233382 3.054209 -0.863256 8.493474 -4.725156 -0.000132 1.090005 6.913407 -0.374291 8.874588 3.109900 -0.121025 2.704129 0.000000 0.000000 0.000000 25.062504 -8.904275 -58.497331 38.715528 -47.290220 17.489471 33.958267 -14.837211 20.208765 0.000000 0.000000 0.000000 -7.125000 0.000000 0.000000 3.465719 6.085338 3.084551 0.000000 0.000000 0.000000 -7.512674 20.931568 34.431401 -34.275728 -44.288014 -14.305272 -17.401117 7.700141 42.684268 0.000000 0.000000 0.000000 7.125000 0.000000 0.000000 31.611517 71.805684 -20.765681
9.613157 20.796197 17.756885 6.472193 42.740928 27.498029 0.000000 0.000000 0.000000 -11.384918 -21.549916 -45.703093 4.212284 12.436365 37.295678 0.641390 14.974684 16.578649 4.641234 -12.967288 -39.247228 0.000000 0.000000 0.000000 9.634605 23.283654 -28.781654 -1.214930 -6.991844 19.691291 0.007920 -7.116737 4.811526 -4.042670 12.216978 -36.503931 -5.525003 -2.533128 -25.455256 0.376277 -1.682549 -5.212474 3.062632 -0.849378 8.516624 -4.703219 0.030835 1.122487 6.901590 -0.329568 8.857984 3.101840 -0.097814 2.689160 0.000000 0.000000 0.000000 26.119385 -8.677384 -57.820963 38.587599 -47.210348 17.395540 34.005354 -14.595655 19.912911 0.000000 0.000000 0.000000 -7.125000 0.000000 0.000000 3.543106 6.413553 3.130971 0.000000 0.000000 0.000000 -7.600364 20.926235 34.374982 -34.030840 -44.107059 -14.134741 -17.143684 7.701777 42.699115 0.000000 0.000000 0.000000 7.125000 0.000000 0.000000 31.934884 71.728418 -20.938333
9.621338 20.723401 17.785921 6.757373 44.276435 27.603279 0.000000 0.000000 0.000000 -11.712541 -21.447053 -45.378753 4.350801 12.612116 37.934984 0.661067 15.304164 16.871986 4.571268 -12.884037 -38.935916 0.000000 0.000000 0.000000 9.584280 23.091793 -28.598148 -1.223189 -7.014727 19.759046 -0.007765 -6.388087 4.697991 -4.090055 12.278977 -36.726653 -5.784323 -2.588739 -25.467366 0.257403 -1.665028 -5.217654 3.085337 -0.841699 8.518068 -4.690272 0.053379 1.157285 6.892679 -0.296401 8.842946 3.096301 -0.080598 2.675191 0.000000 0.000000 0.000000 27.153925 -8.398910 -57.152337 38.473384 -47.138899 17.311734 34.024901 -14.489986 19.731374 0.000000 0.000000 0.000000 -7.125000 0.000000 0.000000 3.584711 6.617097 3.154120 0.000000 0.000000 0.000000 -7.702970 20.941086 34.301670 -33.775825 -43.917454 -13.957534 -16.773251 7.639613 42.744137 0.000000 0.000000 0.000000 7.125000 0.000000 0.000000 32.444451 71.635985 -21.229435
9.628913 20.649467 17.815070 6.962023 45.840365 27.719330 0.000000 0.000000 0.000000 -11.918705 -21.316943 -45.129864 4.493335 12.788586 38.583536 0.701548 15.605412 17.319828 4.558906 -12.869190 -38.880709 0.000000 0.000000 0.000000 9.636276 22.855025 -28.495247 -1.227431 -7.026545 19.794134 -0.028490 -5.587851 4.733201 -4.173745 12.387817 -37.118620 -6.002183 -2.655036 -25.497969 0.189348 -1.675512 -5.266378 3.131879 -0.844365 8.483283 -4.692332 0.061863 1.195949 6.888619 -0.282523 8.830522 3.094967 -0.073387 2.662889 0.000000 0.000000 0.000000 28.151175 -8.034334 -56.496634 38.382059 -47.081510 17.244831 33.998479 -14.611128 19.740646 0.000000 0.000000 0.000000 -7.125000 0.000000 0.000000 3.566592 6.612552 3.138424 0.000000 0.000000 0.000000 -7.830475 20.989628 34.200163 -33.503908 -43.713410 -13.769186 -16.214207 7.470961 42.839523 0.000000 0.000000 0.000000 7.125000 0.000000 0.000000 33.264807 71.518237 -21.718242
9.636840 20.571495 17.847556 7.130449 47.463086 27.821375 0.000000 0.000000 0.000000 -12.108625 -21.103366 -44.871404 4.609875 12.929711 39.107305 0.796781 15.414248 17.987289 4.855996 -13.209283 -40.175495 0.000000 0.000000 0.000000 9.777270 22.603110 -28.351206 -1.221663 -7.010569 19.746722 -0.042981 -4.922803 4.769990 -4.298400 12.545831 -37.693590 -6.201032 -2.738150 -25.560449 0.131962 -1.710979 -5.284937 3.170166 -0.860731 8.501098 -4.714590 0.063322 1.220255 6.898477 -0.278656 8.826749 3.102415 -0.071137 2.657261 0.000000 0.000000 0.000000 29.145967 -7.718802 -55.836892 38.302412 -47.031277 17.186533 33.901631 -14.852529 19.810465 0.000000 0.000000 0.000000 -7.125000 0.000000 0.000000 3.494599 6.554968 3.078602 0.000000 0.000000 0.000000 -7.907662 20.973144 34.002282 -33.247666 -43.518938 -13.592518 -15.384391 7.148021 43.121512 0.000000 0.000000 0.000000 7.125000 0.000000 0.000000 34.754034 71.448392 -22.711316
9.645174 20.491382 17.881414 7.288033 49.106340 27.921903 0.000000 0.000000 0.000000 -12.291060 -20.860983 -44.606019 4.714392 13.054666 39.573717 0.909456 15.027953 18.710297 5.269001 -13.679088 -41.969514 0.000000 0.000000 0.000000 9.953835 22.339146 -28.191978 -1.211885 -6.983444 19.666236 -0.055016 -4.306326 4.812087 -4.435570 12.718383 -38.323438 -6.396615 -2.830772 -25.641914 0.080125 -1.758401 -5.288241 3.208235 -0.883932 8.547103 -4.745536 0.061970 1.231507 6.912743 -0.278564 8.827224 3.113184 -0.070710 2.655887 0.000000 0.000000 0.000000 30.136686 -7.424077 -55.174433 38.219629 -46.978916 17.125985 33.777964 -15.145106 19.903910 0.000000 0.000000 0.000000 -7.125000 0.000000 0.000000 3.402009 6.476550 3.001921 0.000000 0.000000 0.000000 -7.971069 20.920855 33.773692 -32.994999 -43.326028 -13.418730 -14.459351 6.770212 43.471765 0.000000 0.000000 0.000000 7.125000 0.000000 0.000000 36.482837 71.396715 -23.886697
9.656931 20.403753 17.916563 7.482077 50.726932 28.069830 0.000000 0.000000 0.000000 -12.457228 -20.655061 -44.299742 4.792264 13.145628 39.916779 0.980117 14.543327 19.085357 5.660241 -14.083599 -43.588409 0.000000 0.000000 0.000000 10.151940 21.996932 -28.038415 -1.199583 -6.949083 19.564548 -0.065985 -3.654623 4.912745 -4.534652 12.839161 -38.770310 -6.641504 -2.962155 -25.808809 0.046855 -1.836395 -5.244427 3.282653 -0.927383 8.695030 -4.789048 0.058879 1.148241 6.916016 -0.278079 8.839647 3.123729 -0.069498 2.675886 0.000000 0.000000 0.000000 31.088364 -7.156220 -54.497277 38.042553 -46.866198 16.996724 33.653793 -15.505500 20.004871 0.000000 0.000000 0.000000 -7.125000 0.000000 0.000000 3.308017 6.389830 2.924231 0.000000 0.000000 0.000000 -8.101058 20.730689 33.618978 -32.712659 -43.107258 -13.225534 -13.630511 6.439633 43.788587 0.000000 0.000000 0.000000 7.125000 0.000000 0.000000 38.028102 71.344476 -24.944730
9.669767 20.313167 17.952071 7.687897 52.299164 28.225007 0.000000 0.000000 0.000000 -12.596966 -20.475183 -43.958114 4.862861 13.227515 40.226548 1.029078 14.263966 19.362746 5.933011 -14.362674 -44.711445 0.000000 0.000000 0.000000 10.345134 21.698862 -27.870635 -1.186998 -6.913797 19.460211 -0.076259 -3.035134 5.048266 -4.606817 12.926774 -39.095036 -6.889657 -3.082637 -25.951177 0.003482 -1.899657 -5.223468 3.353035 -0.961913 8.803107 -4.829474 0.056817 1.095210 6.918646 -0.277029 8.853279 3.133194 -0.068337 2.690639 0.000000 0.000000 0.000000 32.054568 -6.818357 -53.906969 37.869050 -46.755254 16.870213 33.571733 -15.817972 20.048937 0.000000 0.000000 0.000000 -7.125000 0.000000 0.000000 3.249504 6.358411 2.874435 0.000000 0.000000 0.000000 -8.219452 20.596339 33.506222 -32.450347 -42.902809 -13.046478 -13.100236 6.245186 43.997352 0.000000 0.000000 0.000000 7.125000 0.000000 0.000000 39.029405 71.315094 -25.634525
9.684069 20.218569 17.988068 7.909696 53.805766 28.390024 0.000000 0.000000 0.000000 -12.700836 -20.330649 -43.568510 4.923583 13.297084 40.491132 1.048592 14.263178 19.507582 6.045002 -14.471514 -45.161528 0.000000 0.000000 0.000000 10.531664 21.460700 -27.683559 -1.174030 -6.877255 19.352281 -0.085592 -2.459364 5.231099 -4.642451 12.969376 -39.253992 -7.142242 -3.188326 -26.060259 -0.053605 -1.942926 -5.233528 3.417939 -0.984335 8.857103 -4.865714 0.056151 1.083211 6.920403 -0.275211 8.868550 3.141193 -0.067246 2.698275 0.000000 0.000000 0.000000 33.040486 -6.385484 -53.434523 37.700398 -46.646718 16.747435 33.546826 -16.065406 20.015788 0.000000 0.000000 0.000000 -7.125000 0.000000 0.000000 3.239141 6.402044 2.862497 0.000000 0.000000 0.000000 -8.322110 20.537738 33.450408 -32.215215 -42.717794 -12.886613 -12.975155 6.235490 44.059468 0.000000 0.000000 0.000000 7.125000 0.000000 0.000000 39.292474 71.316730 -25.824570
